<svg xmlns="http://www.w3.org/2000/svg" xmlns:xlink="http://www.w3.org/1999/xlink" id="Capa_1" width="512" height="512" x="0" y="0" enable-background="new 0 0 631.755 631.755" version="1.1" viewBox="0 0 631.755 631.755" xml:space="preserve"><g><g><path fill="#FFF" d="M619.951,62.122c0,0,6.755-31.818-5.03-41.045L591.869,3.084c-11.756-9.169-41.045,5.03-41.045,5.03l-17.993,23.052 l69.127,54.008L619.951,62.122z"/><polygon fill="#FFF" points="262.702 376.86 261.265 449.954 331.858 430.869 592.933 96.7 569.909 78.678 314.239 405.891 288.284 415.405 291.187 387.897 546.857 60.685 523.805 42.663"/><polygon fill="#FFF" points="9.877 631.755 555.998 631.755 555.998 200.607 527.254 229.35 527.254 603.012 38.62 603.012 38.62 114.377 412.281 114.377 441.024 85.634 9.877 85.634"/></g></g></svg>