<svg xmlns="http://www.w3.org/2000/svg" xmlns:xlink="http://www.w3.org/1999/xlink" id="Layer_1" x="0" y="0" enable-background="new 0 0 512.003 512.003" version="1.1" viewBox="0 0 512.003 512.003" xml:space="preserve"><path fill="#9BC9FF" d="M504.095,389.589L370.506,256l133.589-133.591c5.063-5.061,7.906-11.926,7.906-19.085	c0-7.158-2.843-14.024-7.906-19.083L427.757,7.905c-10.538-10.538-27.628-10.538-38.168,0L256.002,141.494L122.41,7.905	c-10.538-10.538-27.628-10.538-38.168,0L7.907,84.241c-10.54,10.54-10.54,27.628,0,38.168l133.589,133.593L7.907,389.589	c-10.54,10.54-10.54,27.628,0,38.168l76.338,76.338c5.061,5.061,11.926,7.906,19.085,7.906c7.158,0,14.024-2.845,19.083-7.906	l133.589-133.591l133.589,133.591c5.061,5.061,11.926,7.906,19.083,7.906c7.159,0,14.024-2.845,19.085-7.906l76.338-76.338	C514.637,417.219,514.637,400.131,504.095,389.589z"/><path fill="#57A4FF" d="M7.907,427.759l76.338,76.338c5.06,5.061,11.926,7.906,19.083,7.906	c7.159,0,14.024-2.845,19.083-7.906L256,370.506V141.494L122.41,7.905c-10.538-10.54-27.628-10.54-38.168,0L7.907,84.241	c-10.54,10.54-10.54,27.628,0,38.168l133.589,133.593L7.907,389.589C-2.635,400.131-2.635,417.219,7.907,427.759z"/></svg>